<svg version="1.2" xmlns="http://www.w3.org/2000/svg" viewBox="0 0 875 875" width="875" height="875">
	<style>
		.s0 { fill: #009cc1 } 
		.s1 { fill: #feffff } 
	</style>
	<g id="Background">
		<path id="Path 0" class="s0" d="m0 437.5v437.5h875v-875h-875z"/>
		<path id="Path 1" class="s1" d="m229.5 202.58c-5.5 0.74-13.82 2.24-18.5 3.33-4.68 1.1-13.22 3.62-19 5.61-5.78 2-15.9 6.34-22.5 9.66-6.6 3.32-14.7 7.86-18 10.08-3.3 2.23-8.47 6.08-11.5 8.56-3.03 2.48-8.35 7.25-11.82 10.6-3.48 3.34-9.35 9.9-13.04 14.58-3.7 4.67-8.02 10.52-9.62 13-1.59 2.48-4.42 7.2-6.29 10.5-1.87 3.3-5.12 10.05-7.22 15-2.09 4.95-4.99 12.82-6.44 17.5-1.44 4.67-3.51 13.67-4.59 20-1.43 8.32-1.97 16.19-1.98 28.5-0.01 12.82 0.49 19.83 2.05 28.5 1.13 6.32 3.7 16.45 5.7 22.5 2 6.05 6.36 16.4 9.69 23.01 3.33 6.6 9.08 16.5 12.78 22 3.69 5.49 8.89 12.69 11.54 15.99 2.66 3.3 5.26 5.88 5.78 5.73 0.53-0.15 0.92-1.95 0.88-4-0.05-2.05-0.61-25.33-1.25-51.73-0.64-26.4-1.4-52.73-1.68-58.5-0.29-5.77-0.18-13.99 0.24-18.26 0.59-5.91 1.13-7.75 2.27-7.72 0.82 0.01 5.1 2.11 9.5 4.66 4.4 2.54 10.7 6.53 14 8.86 3.3 2.34 9.26 7.67 13.25 11.85 3.99 4.19 8.44 9.97 9.89 12.86 1.45 2.89 3.7 8.06 5 11.5 1.3 3.44 3.23 9.96 4.29 14.5 1.06 4.54 2.43 12.98 3.03 18.75 0.6 5.77 1.44 19.05 1.87 29.5 0.76 18.47 0.86 19.15 3.72 24.35 1.62 2.95 5.91 8.13 9.53 11.5 3.61 3.38 10.79 9.75 15.95 14.15 5.16 4.4 16.15 13.78 24.42 20.85 8.28 7.07 18.87 16.14 23.55 20.17 4.68 4.02 13.42 11.51 19.42 16.65 6.01 5.13 13.89 11.86 17.5 14.96 3.62 3.09 8.38 6.58 10.58 7.75 2.2 1.17 5.5 2.13 7.33 2.12 2.37 0 4.16-0.86 6.25-3 1.65-1.69 2.92-4.09 2.92-5.5 0-1.38-0.68-3.85-1.5-5.5-0.82-1.65-5.51-6.26-10.41-10.25-4.9-3.99-18.74-16.08-30.75-26.87-12.01-10.8-24.09-21.93-26.84-24.74-2.75-2.82-6.7-7.94-8.78-11.38-2.09-3.44-4.31-8.06-4.94-10.26-0.63-2.2-1.1-7.83-1.05-12.5 0.06-4.68 0.85-11.43 1.77-15 0.92-3.58 2.95-9.65 4.53-13.5 1.57-3.85 3.56-7.56 4.41-8.25 1.25-1.01 2-0.98 3.81 0.12 1.24 0.76 8.1 6.5 15.25 12.76 7.15 6.25 22.23 19.32 33.5 29.03 11.27 9.72 28.2 24.34 37.6 32.5 9.41 8.16 23.54 20.24 31.41 26.84 7.87 6.6 16.88 14.25 20.01 17 3.14 2.75 7.4 7.02 9.47 9.5 2.08 2.48 5.6 7.2 7.84 10.5 2.23 3.3 6 10.16 8.37 15.25 2.36 5.09 5.84 14.54 7.73 21 1.88 6.46 4.02 13.89 4.75 16.51 1.17 4.23 1.41 4.5 2.17 2.5 0.46-1.24 2.31-8.11 4.11-15.26 1.79-7.15 4.7-16.38 6.46-20.5 1.76-4.13 4.69-10.2 6.52-13.5 1.83-3.3 5.99-9.38 9.24-13.5 3.59-4.55 12.19-12.83 21.87-21.07 8.77-7.46 19.13-16.23 23.02-19.5 3.89-3.26 14.88-12.68 24.43-20.93 9.55-8.25 21.44-18.53 26.43-22.84 4.99-4.31 14.02-12.04 20.07-17.16 6.05-5.12 16.62-14.27 23.5-20.34 6.87-6.06 12.95-10.84 13.5-10.62 0.55 0.21 1.97 2.54 3.15 5.17 1.18 2.64 3.4 8.61 4.94 13.29 2.41 7.33 2.8 10.16 2.85 20.52 0.06 11.51-0.07 12.29-3.1 18.5-1.74 3.56-5.34 8.92-8 11.9-2.66 2.99-13.17 12.84-23.34 21.9-10.17 9.05-24.12 21.24-30.98 27.07-6.87 5.84-13.73 11.85-15.25 13.36-2.21 2.19-2.77 3.66-2.77 7.25 0 3.47 0.57 5.07 2.5 7 1.65 1.65 3.6 2.5 5.75 2.49 1.79-0.01 5.05-0.9 7.25-1.99 2.2-1.08 11.02-7.93 19.61-15.23 8.58-7.3 21.9-18.67 29.59-25.27 7.69-6.6 19.57-16.72 26.39-22.48 6.83-5.76 19.12-16.34 27.33-23.5 8.2-7.16 15.89-14.6 17.08-16.52 1.19-1.93 2.73-5.08 3.42-7 0.74-2.09 1.6-12.99 2.13-27 0.48-12.93 1.58-27.55 2.44-32.5 0.86-4.95 2.42-11.7 3.45-15 1.04-3.3 3.17-9.15 4.74-13 1.57-3.85 4.91-9.93 7.44-13.5 2.52-3.58 7.01-8.69 9.98-11.36 2.97-2.68 9-7.25 13.4-10.16 4.4-2.91 10.61-6.57 13.8-8.14 4.98-2.44 5.93-2.63 6.73-1.34 0.52 0.82 0.93 9.82 0.92 20-0.01 10.17-0.43 32.23-0.94 49-0.5 16.77-1.27 39.39-1.71 50.25-0.75 18.45-0.68 19.76 0.95 19.75 1.07 0 4.99-4.39 10.07-11.25 4.58-6.19 10.23-14.4 12.56-18.25 2.33-3.85 6.08-10.83 8.33-15.5 2.26-4.68 5.79-13.23 7.86-19 2.06-5.77 4.77-15.68 6.02-22 1.9-9.57 2.29-14.86 2.33-31.5 0.03-14.76-0.4-22.36-1.65-29-0.93-4.95-3.01-13.5-4.63-19-1.61-5.5-4.35-13.38-6.08-17.5-1.73-4.13-5.16-11.21-7.61-15.75-2.45-4.54-6.11-10.61-8.14-13.5-2.04-2.89-6.87-9.03-10.75-13.64-3.88-4.62-9.76-10.89-13.06-13.93-3.3-3.05-9.15-7.86-13-10.69-3.85-2.84-10.83-7.38-15.5-10.09-4.67-2.72-10.98-6.14-14-7.59-3.02-1.46-9.33-4.07-14-5.79-4.67-1.73-12.44-4.24-17.25-5.58-4.81-1.34-14.83-3.34-22.25-4.44-8.52-1.26-18.67-2-27.5-2-7.7 0-19.29 0.69-25.75 1.54-6.46 0.85-14.45 2.23-17.75 3.07-3.3 0.83-9.38 2.58-13.5 3.87-4.13 1.3-11.1 3.8-15.5 5.56-4.4 1.76-10.7 4.56-14 6.23-3.3 1.66-9.38 5.1-13.5 7.65-4.13 2.56-11.1 7.37-15.5 10.71-4.4 3.33-12.76 10.74-18.59 16.47-5.82 5.72-14.33 15.13-18.9 20.9-4.57 5.77-10.15 13.39-12.41 16.91-2.25 3.53-6.58 10.92-9.6 16.43-3.02 5.51-5.95 10.17-6.5 10.35-0.55 0.19-2.06-1.8-3.35-4.42-1.3-2.62-5.12-9.42-8.5-15.1-3.38-5.68-8.76-13.78-11.94-18-3.18-4.22-9.96-12.4-15.06-18.17-5.1-5.77-13.75-14.26-19.21-18.85-5.47-4.59-13.99-11.04-18.94-14.34-4.95-3.29-14.4-8.58-21-11.75-6.6-3.16-14.7-6.71-18-7.88-3.3-1.16-10.16-3.26-15.25-4.65-5.09-1.39-15.89-3.43-24-4.52-9.28-1.26-19.75-1.95-28.25-1.88-7.43 0.06-18 0.71-23.5 1.45z"/>
		<path id="Path 2" class="s0" d="m406.07 314.75c-1.69 1.36-2.5 3.77-3.59 10.75-0.78 4.95-3.03 19.13-5 31.5-1.98 12.38-4.52 27.68-5.65 34-1.14 6.32-2.67 12.18-3.41 13-1.17 1.31-1.75 1.03-4.63-2.23-2.1-2.37-4.2-3.74-5.79-3.77-1.48-0.02-3.56 1.09-5.11 2.73-1.43 1.52-5.37 7.16-8.75 12.52l-6.14 9.75c-42.09-0.07-43.68 0.06-46.25 1.97-2.24 1.66-2.7 2.7-2.5 5.68 0.17 2.55 1.01 4.21 2.75 5.51 2.26 1.67 4.77 1.86 26 1.96 19.73 0.08 24.02-0.16 26.75-1.51 2.1-1.04 4.93-4.25 8-9.04 2.61-4.09 5.43-7.48 6.25-7.53 0.82-0.05 2.96 1.94 4.75 4.43 1.79 2.49 4.79 5.32 6.67 6.28 3.27 1.67 3.55 1.67 6 0 1.42-0.96 2.98-2.76 3.47-4 0.48-1.24 2.49-11.7 4.45-23.25 1.96-11.55 4.04-21.45 4.61-22q1.05-1 1.97 0c0.51 0.55 1.86 9.77 3 20.5 1.14 10.73 3.21 29.18 4.59 41 1.38 11.82 3.42 29.38 4.52 39 1.11 9.63 3.13 26.95 4.49 38.5 1.35 11.55 2.91 23.92 3.45 27.5 0.54 3.58 1.83 7.63 2.86 9 1.21 1.61 3.07 2.62 5.27 2.84 2.12 0.21 4.06-0.26 5.15-1.25 0.96-0.87 2.4-3.95 3.2-6.84 0.79-2.89 3.05-12.45 5.02-21.25 1.97-8.8 6.5-28.15 10.07-43 3.57-14.85 8.21-34.65 10.32-44 2.58-11.49 4.27-17.1 5.23-17.3 0.98-0.22 2.93 3.72 6.41 12.95 2.75 7.3 5.79 14.3 6.75 15.56 1.18 1.54 2.81 2.3 5 2.32 2.11 0.01 4.01-0.78 5.4-2.25 1.19-1.26 3.39-4.53 4.88-7.28 1.5-2.75 3.46-5.8 4.35-6.78 1.44-1.59 3.61-1.78 19.87-1.75 12.66 0.02 19.01-0.35 20.75-1.22 1.37-0.69 2.94-2.26 3.5-3.5 0.55-1.24 1-2.93 1-3.75 0-0.82-1.01-2.64-2.25-4.04l-2.25-2.55c-33.33-0.12-43.9-0.12-45-0.07-1.1 0.05-3.53 1.57-5.4 3.38-3.32 3.2-3.44 3.23-4.75 1.28-0.74-1.1-3.91-9.87-7.04-19.5-3.13-9.62-6.5-18.29-7.5-19.25-0.99-0.96-3.27-1.76-5.06-1.78-1.84-0.02-4 0.74-4.98 1.75-0.95 0.98-2.92 6.73-4.36 12.78-1.45 6.05-4.58 19.1-6.97 29-2.39 9.9-5.67 23.63-7.29 30.5-1.63 6.88-4.19 17.9-5.69 24.5-1.51 6.6-3.32 12.9-4.02 14l-1.28 2c-1.45-3.1-2.39-7.37-3.01-11.5-0.63-4.12-3.16-23.7-5.63-43.5-2.47-19.8-5.4-43.65-6.52-53-1.11-9.35-3.15-26.9-4.53-39-1.38-12.1-3.06-25.55-3.74-29.89-1.02-6.52-1.7-8.29-3.98-10.25-1.51-1.3-3.59-2.36-4.63-2.36-1.03 0-2.85 0.79-4.05 1.75z"/>
	</g>
</svg>